<svg xmlns="http://www.w3.org/2000/svg" width="33.108" height="35.278" viewBox="0 0 33.108 35.278"><defs><style>.a{fill:#b8b6b6;}</style></defs><path class="a" d="M499.6.652l-8.253,16q.071.02.142.043a6.151,6.151,0,0,1,.98.409,5.2,5.2,0,0,1,1,.684L501.74,1.756a1.2,1.2,0,1,0-2.14-1.1Z" transform="translate(-468.766 0)"/><path class="a" d="M26.093,380.407a18.692,18.692,0,0,0,4.788,3.064,24.93,24.93,0,0,0,6.038,1.877h.01a.815.815,0,0,0,.111.008h.027a10.079,10.079,0,0,0,7.676-3.28c2.341-2.72,3.187-6.81,3.022-10.327a4.3,4.3,0,0,0-1.109-2.768c-.052-.055-.106-.108-.163-.159a3.972,3.972,0,0,0-.817-.568,4.937,4.937,0,0,0-.8-.334,2.623,2.623,0,0,0-.342-.085,2.672,2.672,0,0,0-.473-.042,5.087,5.087,0,0,0-3.126,1.476,26.726,26.726,0,0,1-2.763,2.267,12.211,12.211,0,0,1-3.526,1.438,30.268,30.268,0,0,1-4.917.936,40.088,40.088,0,0,1-4.459.262q-.887,0-1.771-.047l-.1-.006-.057,0a.818.818,0,0,0-.773,1.084A12.443,12.443,0,0,0,26.093,380.407Zm-1.146-4.6H25.2a42.7,42.7,0,0,0,4.766-.268,24.335,24.335,0,0,0,9.691-2.889.443.443,0,0,1,.227-.062.448.448,0,0,1,.216.055,42.371,42.371,0,0,0,5.234,2.515.448.448,0,0,1,.294.473,10,10,0,0,1-2.135,5.389,8.457,8.457,0,0,1-6.339,2.7h-.026a.62.62,0,0,1-.107-.009c-.278-.049-.965-.182-1.887-.435.263-.116.535-.255.809-.41.246-.139.494-.29.74-.449.76-.49,1.5-1.046,2.067-1.5a.145.145,0,0,0-.148-.247,19.816,19.816,0,0,1-4.28,1.107c-.45.073-.882.133-1.282.184-.468.059-.891.1-1.245.138l-.277-.124a19.387,19.387,0,0,1-2.225-1.194,8.788,8.788,0,0,0,.934-.142c.29-.059.584-.13.872-.209a22.873,22.873,0,0,0,2.213-.737.1.1,0,0,0-.045-.187c-1.007.1-2.4.106-3.6.088-.391-.006-.759-.014-1.085-.024-.429-.012-.783-.025-1.017-.035q-.205-.172-.4-.348-.253-.228-.487-.466c.242-.025.493-.063.749-.112.239-.046.48-.1.721-.161a22.108,22.108,0,0,0,2.49-.81.1.1,0,0,0-.045-.187c-.945.091-2.234.1-3.375.091-.281,0-.554-.008-.81-.014-.285-.006-.55-.014-.784-.021a10.552,10.552,0,0,1-.878-1.372A.22.22,0,0,1,24.947,375.8Z" transform="translate(-22.525 -350.079)"/></svg>