<svg xmlns="http://www.w3.org/2000/svg" width="99.298" height="99.102" viewBox="0 0 99.298 99.102"><defs><style>.a{fill:#ea9000;}.b{fill:#12cfee;}.c{fill:#fff;}</style></defs><g transform="translate(-58.963 -79.73)"><g transform="translate(82.557 102.823)"><path class="a" d="M143.663,161.606H109.985l.361,1.248,10.279,35.435a3.114,3.114,0,0,0,3.107,1.922h7.839a3.121,3.121,0,0,0,3.107-1.922l10.279-35.435.361-1.248Zm-8.459,29.44-2.833-2.181,2.833-2.189,1.216.934-.942,3.225Zm-2.99,8.145h-1.569l-2.048-1.585,2.833-2.181,2.221,1.718-.345,1.2ZM122,198.344l-.353-1.2,2.228-1.718,2.833,2.181-2.056,1.585h-1.561Zm-2.181-7.509-.934-3.225,1.208-.934,2.833,2.189-2.833,2.181Zm5.006-1.969,2.825-2.189,2.833,2.189-2.833,2.181Zm5.657,5.83-2.833,2.181-2.825-2.181,2.825-2.189Zm-5.657-17.49,2.825-2.181,2.833,2.181-2.833,2.181Zm5.657,5.83-2.833,2.181-2.825-2.181,2.825-2.189Zm-1.883-8.749,2.833-2.181,2.825,2.181-2.825,2.189Zm-.949-.73-2.825-2.181,2.825-2.181,2.833,2.181Zm-.942.73-2.833,2.189-2.833-2.189,2.833-2.181Zm-6.607-.73-2.833-2.181,2.833-2.181,2.825,2.181Zm2.825,3.649-2.825,2.181-2.833-2.181,2.833-2.181Zm.949.73,2.833,2.181-2.833,2.189-2.833-2.189Zm2.833,8.011-2.833,2.189-2.833-2.189,2.833-2.181Zm1.891,0,2.833-2.181,2.825,2.181-2.825,2.189Zm0-5.83,2.833-2.181,2.825,2.181-2.825,2.189Zm3.774-2.911,2.833-2.181,2.833,2.181-2.833,2.181Zm0-5.83,2.833-2.181,2.833,2.181-2.833,2.181Zm3.782-2.911,2.833-2.189,2.825,2.189-2.825,2.181Zm-.949-.73-2.833-2.189,2.833-2.181,2.833,2.181Zm-.949.73-2.825,2.181-2.833-2.181,2.833-2.189Zm-6.607-.73-2.825-2.189,2.825-2.181,2.833,2.181Zm-.942.73-2.833,2.181-2.833-2.181,2.833-2.189Zm-6.607-.73-2.833-2.189,2.825-2.181,2.833,2.181Zm-.949.73-2.833,2.181-2.833-2.181,2.833-2.189Zm-6.136-1.1-1.036-3.57.557-.431,2.833,2.181Zm2.354,4.01-.973.753-.565-1.938Zm.949.73,2.833,2.181-2.833,2.189-.855-.659-.722-2.5Zm0,5.83,2.833,2.181-1.993,1.538-1.036-3.57Zm3.782,2.911,2.825,2.189-2.833,2.181-2.448-1.891-.141-.479Zm-.949,5.1-.612.471-.353-1.208Zm4.724,3.649,2.833,2.181-2.833,2.189-2.833-2.189Zm3.774,8.741,1.106.855h-2.2Zm.949-6.56,2.833-2.181,2.833,2.181-2.833,2.189Zm7.556-5.83.957-.738-.345,1.208Zm-.949-.73-2.833-2.181,2.833-2.189,2.6,2-.141.479Zm.949-5.1,2.833-2.181.2.149-1.036,3.57Zm2.833-3.641-2.833-2.189,2.833-2.181,1.577,1.216-.722,2.5Zm.942-5.1,1.546-1.193-.565,1.946Zm0-5.83,2.833-2.181.565.431-1.036,3.57Zm1.891-2.911-2.833,2.181-2.833-2.181h5.665Zm-7.556,0h0l-2.833,2.181-2.833-2.181h5.665Zm-7.564,0h.008l-2.833,2.181-2.833-2.181H126.7Zm-7.548,0h0l-2.833,2.181-2.833-2.181Zm1.216,30.084,2.558,1.977-1.624,1.248ZM134,195.943l-1.632-1.248,2.566-1.977Z" transform="translate(-100.773 -124.201)"/><path class="a" d="M149.231,168.912H109.692V160.72h39.539Zm-38.009-1.538h36.471v-5.116H111.222Z" transform="translate(-102.779 -130.267)"/><path class="b" d="M154.635,172.171c-.384-8.514-8.772-15.332-19.13-15.332-10.381,0-18.777,6.842-19.138,15.371a9.15,9.15,0,1,0,5.752,17.137c.306,1.766,4.669,5.226,13.567,5.226,9.91,0,13.269-3.46,13.567-5.226a9.134,9.134,0,1,0,5.383-17.176Z" transform="translate(-108.811 -156.839)"/><path class="c" d="M112.777,157.415c-.039-1.044,5.336.557,7.972,3.186,2.064,2.064,3.743,6.222,2.95,7.658a3.051,3.051,0,0,1-4.551.714c-1.263-1.232-.879-3.735-2.228-6.858C115.806,159.526,112.785,157.651,112.777,157.415Z" transform="translate(-81.658 -155.101)"/><path class="c" d="M119.922,160.93a2.741,2.741,0,1,1-3.452-1.7A2.722,2.722,0,0,1,119.922,160.93Z" transform="translate(-69.295 -141.47)"/><path class="c" d="M120.571,161.935c0,1.24-1.868,2.244-4.159,2.244s-4.166-1-4.166-2.244,1.867-2.244,4.166-2.244S120.571,160.7,120.571,161.935Z" transform="translate(-85.293 -137.313)"/><path class="c" d="M113.208,160.514a1.882,1.882,0,1,1-1.82-1.4A1.653,1.653,0,0,1,113.208,160.514Z" transform="translate(-103.635 -141.297)"/></g><g transform="translate(58.963 79.73)"><path class="a" d="M120.273,159.407H106.267a.464.464,0,0,0-.463.463.459.459,0,0,0,.463.463h14.006a.465.465,0,0,0,.471-.463A.471.471,0,0,0,120.273,159.407Z" transform="translate(-105.804 -116.164)"/><path class="a" d="M131.024,159.407H117.018a.469.469,0,0,0-.463.463.464.464,0,0,0,.463.463h14.006a.465.465,0,0,0,.471-.463A.471.471,0,0,0,131.024,159.407Z" transform="translate(-32.196 -116.164)"/><path class="a" d="M127.181,156.824,116.07,167a.467.467,0,0,0,.314.808.486.486,0,0,0,.322-.125L127.817,157.5a.453.453,0,0,0,.024-.651A.469.469,0,0,0,127.181,156.824Z" transform="translate(-36.545 -134.697)"/><path class="a" d="M122.943,155.176a.466.466,0,0,0-.628.2l-7.4,14.2a.462.462,0,0,0,.2.628.517.517,0,0,0,.212.047.464.464,0,0,0,.416-.251l7.4-14.2A.453.453,0,0,0,122.943,155.176Z" transform="translate(-43.778 -145.493)"/><path class="a" d="M117.969,154.2a.457.457,0,0,0-.557.337l-3.829,16.093a.467.467,0,0,0,.353.557l.1.016a.478.478,0,0,0,.463-.361l3.821-16.093A.451.451,0,0,0,117.969,154.2Z" transform="translate(-52.622 -151.916)"/><path class="a" d="M112.5,153.9a.464.464,0,0,0-.463.463l-.016,16.729a.454.454,0,0,0,.463.463.465.465,0,0,0,.471-.463l.016-16.729A.471.471,0,0,0,112.5,153.9Z" transform="translate(-63.26 -153.896)"/><path class="a" d="M124.042,158.2l-7.509,3.963a.468.468,0,0,0-.2.628.475.475,0,0,0,.416.243.437.437,0,0,0,.22-.055l7.517-3.963a.449.449,0,0,0,.188-.62A.475.475,0,0,0,124.042,158.2Z" transform="translate(-34.05 -124.769)"/><path class="a" d="M121.129,156.707l-5.61,7.164a.465.465,0,0,0,.738.565l5.61-7.164a.455.455,0,0,0-.078-.651A.473.473,0,0,0,121.129,156.707Z" transform="translate(-39.964 -135.898)"/><path class="a" d="M118.352,155.47a.473.473,0,0,0-.6.267l-3.484,8.882a.452.452,0,0,0,.267.6.42.42,0,0,0,.165.039.477.477,0,0,0,.439-.3l3.484-8.882A.463.463,0,0,0,118.352,155.47Z" transform="translate(-48.102 -143.332)"/><path class="a" d="M114.28,154.854a.46.46,0,0,0-.518.416l-.965,9.738a.46.46,0,0,0,.416.51h.047a.467.467,0,0,0,.463-.416l.973-9.745A.464.464,0,0,0,114.28,154.854Z" transform="translate(-57.949 -147.352)"/><path class="a" d="M107.594,156.827a.462.462,0,0,0-.659.024.453.453,0,0,0,.024.651l11.111,10.185a.465.465,0,0,0,.659-.024A.462.462,0,0,0,118.7,167Z" transform="translate(-98.931 -134.699)"/><path class="a" d="M109.221,155.372a.466.466,0,0,0-.628-.2.453.453,0,0,0-.2.62l7.4,14.2a.464.464,0,0,0,.416.251.517.517,0,0,0,.212-.047.469.469,0,0,0,.2-.628Z" transform="translate(-88.459 -145.493)"/><path class="a" d="M111.008,154.536a.462.462,0,0,0-.565-.337.452.452,0,0,0-.345.549l3.821,16.093a.478.478,0,0,0,.463.361l.1-.016a.467.467,0,0,0,.353-.557Z" transform="translate(-76.499 -151.916)"/><path class="a" d="M115.1,162.165l-7.517-3.963a.466.466,0,0,0-.628.2.45.45,0,0,0,.188.62l7.517,3.963a.437.437,0,0,0,.22.055.475.475,0,0,0,.416-.243A.468.468,0,0,0,115.1,162.165Z" transform="translate(-98.289 -124.769)"/><path class="a" d="M108.849,156.707a.473.473,0,0,0-.659-.086.463.463,0,0,0-.086.651l5.61,7.164a.483.483,0,0,0,.377.18.47.47,0,0,0,.282-.094.464.464,0,0,0,.086-.651Z" transform="translate(-90.716 -135.898)"/><path class="a" d="M110.371,155.737a.473.473,0,0,0-.6-.267.463.463,0,0,0-.267.6l3.484,8.882a.466.466,0,0,0,.432.3.425.425,0,0,0,.173-.039.452.452,0,0,0,.267-.6Z" transform="translate(-80.719 -143.332)"/><path class="a" d="M111.646,154.855a.454.454,0,0,0-.416.5l.965,9.745a.469.469,0,0,0,.471.416h.047a.461.461,0,0,0,.416-.51l-.965-9.738A.464.464,0,0,0,111.646,154.855Z" transform="translate(-68.678 -147.354)"/></g></g></svg>