<svg xmlns="http://www.w3.org/2000/svg" width="106.109" height="91.102" viewBox="0 0 106.109 91.102"><defs><style>.a{fill:#dad7b5;}.b{fill:#73b521;}.c{fill:#86ce28;}.d{fill:#fff;}.e{fill:#bd8fdf;}</style></defs><g transform="translate(-483.128 -899.436)"><path class="a" d="M497.148,901.479s-14.02,2.073-14.02,15.4,12.244,14.812,12.244,14.812l10.762.1,5.727-11.057H500.209s-6.813-1.185-7.306-9.184S497.148,901.479,497.148,901.479Z" transform="translate(0 1.117)"/><path class="a" d="M547.862,901.691s14.02,2.074,14.02,15.4-12.242,14.81-12.242,14.81l-10.763.1-5.727-11.059H544.8s6.813-1.185,7.306-9.182S547.862,901.691,547.862,901.691Z" transform="translate(27.356 1.233)"/><path class="b" d="M487.5,923.6s6.294,2.962,10.811,3.627,5.628.3,5.628.3v10.96s-8.441,1.036-13.625-3.85A10.51,10.51,0,0,1,487.5,923.6Z" transform="translate(2.095 13.213)"/><path class="b" d="M554.25,923.6s-6.294,2.962-10.813,3.627-5.628.3-5.628.3v10.96s8.443,1.036,13.627-3.85A10.51,10.51,0,0,0,554.25,923.6Z" transform="translate(29.905 13.213)"/><rect class="c" width="62.946" height="82.94" rx="20.346" transform="translate(505.265 907.599)"/><path class="b" d="M2.31,0H48.837a2.31,2.31,0,0,1,2.31,2.31V39.156A16.532,16.532,0,0,1,34.614,55.688H16.532A16.532,16.532,0,0,1,0,39.156V2.31A2.31,2.31,0,0,1,2.31,0Z" transform="translate(511.165 928.975)"/><path class="d" d="M505.38,918.5l4.369,9.622L514.1,918.5Z" transform="translate(12.17 10.424)"/><path class="d" d="M516.2,918.5l2.771,6.15,2.783-6.15Z" transform="translate(18.087 10.424)"/><path class="d" d="M523.827,918.5l4.369,9.622,4.351-9.622Z" transform="translate(22.258 10.424)"/><circle class="d" cx="9.084" cy="9.084" r="9.084" transform="translate(527.955 899.436)"/><circle class="d" cx="9.084" cy="9.084" r="9.084" transform="translate(507.582 904.11)"/><circle class="d" cx="9.084" cy="9.084" r="9.084" transform="translate(548.262 904.274)"/><circle class="e" cx="2.995" cy="2.995" r="2.995" transform="translate(509.721 909.014)"/><circle class="e" cx="2.995" cy="2.995" r="2.995" transform="translate(557.181 909.343)"/><circle class="e" cx="2.995" cy="2.995" r="2.995" transform="translate(534.274 905.328)"/><circle class="b" cx="2.666" cy="2.666" r="2.666" transform="translate(526.325 920.764)"/><circle class="b" cx="2.666" cy="2.666" r="2.666" transform="translate(541.268 920.764)"/></g></svg>