<svg xmlns="http://www.w3.org/2000/svg" width="97.587" height="97.587" viewBox="0 0 97.587 97.587"><defs><style>.a{fill:#ffcbcb;}.b{fill:#f8f9f3;}.c,.f{fill:#f9b43f;}.d{fill:#7a344b;}.e{fill:#ff9c9c;opacity:0.39;}.f{opacity:0.15;}</style></defs><g transform="translate(-352.241 -28.329)"><g transform="translate(352.241 28.329)"><path class="a" d="M403.192,54.312c-2.488-4.978-4.9-11.144-3.967-16.781a12.692,12.692,0,0,1,2.115-5.476,9.129,9.129,0,0,1,13.634-1.229c7.466,7.067,1.853,17.54-2.993,24.135" transform="translate(-359.317 -28.329)"/><path class="a" d="M418.151,55.911c.335-5.555,1.327-12.1,4.956-16.516a12.712,12.712,0,0,1,4.57-3.685A9.128,9.128,0,0,1,440.1,41.464c2.932,9.853-7.166,16.116-14.66,19.4" transform="translate(-362.211 -29.331)"/><path class="a" d="M430.11,65.086c3.067-4.643,7.2-9.816,12.55-11.825a12.71,12.71,0,0,1,5.8-.906,9.128,9.128,0,0,1,7.88,11.194c-2.388,10-14.265,10.373-22.4,9.474" transform="translate(-364.02 -31.955)"/><path class="a" d="M436.491,79.285c4.978-2.487,11.145-4.9,16.782-3.964a12.7,12.7,0,0,1,5.476,2.117,9.128,9.128,0,0,1,1.226,13.634c-7.068,7.465-17.54,1.85-24.135-3" transform="translate(-364.887 -35.406)"/><path class="a" d="M435.017,94.244c5.554.335,12.1,1.329,16.516,4.958a12.705,12.705,0,0,1,3.684,4.571,9.128,9.128,0,0,1-5.756,12.42c-9.854,2.93-16.115-7.169-19.4-14.664" transform="translate(-364.012 -38.3)"/><path class="a" d="M426.709,106.2c4.643,3.068,9.816,7.2,11.823,12.553a12.7,12.7,0,0,1,.9,5.8,9.127,9.127,0,0,1-11.2,7.877c-10-2.389-10.37-14.266-9.469-22.4" transform="translate(-362.256 -40.109)"/><path class="a" d="M412.77,112.58c2.486,4.979,4.9,11.146,3.961,16.782a12.7,12.7,0,0,1-2.117,5.477,9.129,9.129,0,0,1-13.635,1.223c-7.464-7.069-1.847-17.54,3-24.134" transform="translate(-359.065 -40.975)"/><path class="a" d="M397.3,111.1c-.336,5.554-1.331,12.1-4.961,16.514a12.707,12.707,0,0,1-4.572,3.684,9.128,9.128,0,0,1-12.419-5.759c-2.929-9.854,7.171-16.113,14.666-19.4" transform="translate(-355.657 -40.1)"/><path class="a" d="M384.627,102.794c-3.069,4.642-7.2,9.814-12.555,11.82a12.686,12.686,0,0,1-5.8.9,9.128,9.128,0,0,1-7.875-11.2c2.391-10,14.267-10.368,22.4-9.466" transform="translate(-353.135 -38.344)"/><path class="a" d="M378.222,88.853c-4.979,2.485-11.146,4.9-16.783,3.959a12.7,12.7,0,0,1-5.476-2.118,9.128,9.128,0,0,1-1.221-13.634c7.071-7.463,17.541-1.844,24.134,3" transform="translate(-352.241 -35.153)"/><path class="a" d="M379.829,73.38c-5.554-.338-12.1-1.333-16.514-4.963a12.7,12.7,0,0,1-3.683-4.573,9.127,9.127,0,0,1,5.76-12.418c9.855-2.927,16.112,7.174,19.4,14.67" transform="translate(-353.245 -31.745)"/><path class="a" d="M389.009,60.712c-4.642-3.07-9.813-7.206-11.819-12.556a12.7,12.7,0,0,1-.9-5.8,9.126,9.126,0,0,1,11.2-7.874c10,2.393,10.366,14.269,9.463,22.4" transform="translate(-355.87 -29.223)"/><g transform="translate(9.221 9.221)"><g transform="translate(39.489)"><path class="b" d="M410.418,55.485c.362-.005.6-3.656.537-8.155s-.413-8.141-.775-8.136-.6,3.656-.537,8.155S410.056,55.491,410.418,55.485Z" transform="translate(-409.632 -39.194)"/></g><g transform="translate(51.78 5.528)"><path class="b" d="M424.156,59.941c.317.177,2.351-2.864,4.543-6.793s3.714-7.257,3.4-7.433-2.35,2.864-4.543,6.793S423.839,59.765,424.156,59.941Z" transform="translate(-424.114 -45.707)"/></g><g transform="translate(60.077 20.154)"><path class="b" d="M433.9,71.328c.186.311,3.469-1.306,7.332-3.611s6.845-4.428,6.659-4.738-3.469,1.305-7.331,3.611S433.714,71.017,433.9,71.328Z" transform="translate(-433.89 -62.94)"/></g><g transform="translate(62.852 39.494)"><path class="b" d="M437.16,86.51c.005.362,3.656.6,8.155.539s8.141-.411,8.136-.773-3.656-.6-8.155-.539S437.155,86.149,437.16,86.51Z" transform="translate(-437.16 -85.727)"/></g><g transform="translate(59.373 51.783)"><path class="b" d="M433.068,100.248c-.177.317,2.864,2.351,6.792,4.544s7.257,3.715,7.433,3.4-2.865-2.351-6.793-4.544S433.244,99.931,433.068,100.248Z" transform="translate(-433.06 -100.206)"/></g><g transform="translate(50.56 60.08)"><path class="b" d="M422.715,109.99c-.311.185,1.305,3.468,3.611,7.332s4.426,6.845,4.738,6.66-1.305-3.469-3.611-7.332S423.027,109.8,422.715,109.99Z" transform="translate(-422.677 -109.981)"/></g><g transform="translate(38.312 62.852)"><path class="b" d="M408.8,113.248c-.362.005-.6,3.656-.54,8.155s.41,8.141.772,8.136.6-3.656.54-8.155S409.158,113.243,408.8,113.248Z" transform="translate(-408.246 -113.248)"/></g><g transform="translate(19.329 59.37)"><path class="b" d="M393.867,109.153c-.316-.177-2.351,2.864-4.545,6.792s-3.717,7.256-3.4,7.432,2.351-2.864,4.545-6.792S394.183,109.33,393.867,109.153Z" transform="translate(-385.88 -109.145)"/></g><g transform="translate(5.053 50.557)"><path class="b" d="M383.061,98.8c-.185-.311-3.468,1.3-7.332,3.609s-6.847,4.425-6.661,4.736,3.469-1.3,7.333-3.609S383.246,99.111,383.061,98.8Z" transform="translate(-369.059 -98.762)"/></g><g transform="translate(0 38.307)"><path class="b" d="M379.4,84.88c-.005-.362-3.656-.6-8.155-.542s-8.142.409-8.137.772,3.656.6,8.156.541S379.4,85.242,379.4,84.88Z" transform="translate(-363.106 -84.328)"/></g><g transform="translate(5.537 19.324)"><path class="b" d="M383.861,69.951c.177-.317-2.864-2.352-6.792-4.547s-7.255-3.717-7.432-3.4,2.865,2.352,6.792,4.546S383.684,70.267,383.861,69.951Z" transform="translate(-369.63 -61.962)"/></g><g transform="translate(20.171 5.049)"><path class="b" d="M395.253,59.146c.311-.185-1.3-3.469-3.608-7.333s-4.424-6.847-4.735-6.662,1.3,3.469,3.608,7.334S394.942,59.332,395.253,59.146Z" transform="translate(-386.872 -45.143)"/></g></g></g><path class="c" d="M421.757,54.546a30.921,30.921,0,0,0-43.285,8.588c-5.556,8.563-7.258,20.812-3.027,30.263,3.9,8.71,12.218,14.306,21.124,16.835a33.9,33.9,0,0,0,19.726-.4C428.6,105.64,436.759,91.395,436.142,78.8,435.653,68.82,429.825,59.98,421.757,54.546Z" transform="translate(-3.152 -3.155)"/><g transform="translate(382.938 70.151)"><circle class="d" cx="2.948" cy="2.948" r="2.948" transform="translate(2.279 0.009)"/><ellipse class="e" cx="3.225" cy="4.748" rx="3.225" ry="4.748" transform="translate(0 13.916) rotate(-88.187)"/><ellipse class="e" cx="3.225" cy="4.748" rx="3.225" ry="4.748" transform="translate(26.373 13.916) rotate(-88.187)"/><circle class="d" cx="2.948" cy="2.948" r="2.948" transform="translate(27.768)"/><g transform="translate(11.816 1.868)"><path class="d" d="M402.333,80.8A6.626,6.626,0,0,0,408.5,87.26c3.785.411,6.587-3.038,6.76-6.506.063-1.268-1.9-1.262-1.967,0a4.5,4.5,0,0,1-8.988.043c-.072-1.261-2.04-1.268-1.967,0Z" transform="translate(-402.331 -79.805)"/></g></g><path class="f" d="M437.923,81.6a29.236,29.236,0,0,0-4.381-13.867A41.978,41.978,0,0,1,423.527,97.3a32.948,32.948,0,0,1-33.547,10.434,52.988,52.988,0,0,1-5.126-1.647,36.939,36.939,0,0,0,13.5,6.952,33.9,33.9,0,0,0,19.726-.4C430.386,108.445,438.54,94.2,437.923,81.6Z" transform="translate(-4.933 -5.96)"/></g></svg>