<svg xmlns="http://www.w3.org/2000/svg" width="331.535" height="304.278" viewBox="0 0 331.535 304.278"><defs><style>.a{fill:#eee;}.b{fill:#c6496c;}.c{opacity:0.27;}.d{opacity:0.18;}</style></defs><g transform="translate(29.422 -206.944)"><path class="a" d="M26.558,207.51s16.534,14.469,42.661,14.469,46.676-15.034,46.676-15.034l12.645,5.5s-11.065,53.789-56.556,53.789-59.321-52.559-59.321-52.559Z" transform="translate(64.667 0)"/><path class="b" d="M68.164,234.58c34.764,0,48.4-17.553,52.32-24.192l-7.909-3.445S92.024,221.978,65.9,221.978,23.238,207.51,23.238,207.51l-8.416,3.736C18.13,216.033,33.2,234.58,68.164,234.58Z" transform="translate(67.986 0)"/><path class="c" d="M26.622,207.542s16.534,14.466,42.661,14.466,46.676-15.032,46.676-15.032l12.642,5.5s-11.065,53.789-56.554,53.789-59.321-52.559-59.321-52.559Z" transform="translate(64.765 0.049)"/><path class="a" d="M248.309,234.8c-.588-.492-1.18-.987-1.806-1.433-3.655-2.6-8.406-3.638-12.551-5.23l-9.961-3.828c-14.1-5.418-29.475-11.547-43.429-17.366-1.207,3.49-5.636,16.019-12.84,25.074-15.605,19.608-47.47,19.831-63.339.4-7.321-8.962-11.907-21.434-13.157-24.909-13.88,6-29.176,12.318-43.206,17.913-5.423,2.164-10.963,4.074-16.351,6.316s-9.264,5.733-13.584,9.474C12.894,245.706,7.8,250.3,2.62,254.81-7.6,263.7-18.073,272.358-29.422,279.788c0,0,.946,17.323,14.877,35.665C-7.29,325-.056,333.823,10.618,339.426c2.275,1.195,3.11,1.849,5.172,1.261,3.14-.9,7.037-5.111,9.708-7.052q6.9-5.011,13.8-10.02s.023,68.44.279,109.011.013,66.391.013,66.391,22.594,8.465,58.263,10.7c15.26.956,30.518,1.768,45.814,1.431,5.357-.119,10.7-.383,16.052-.7,5.984-.358,12.059-1.2,18.045-1.235,35.639-2.684,58.124-11.432,58.124-11.432s-.573-25.815-.832-66.386-1.1-109.008-1.1-109.008q6.959,4.924,13.923,9.847c2.694,1.9,6.643,6.073,9.8,6.927,2.07.563,2.894-.1,5.154-1.327,10.6-5.738,17.723-14.649,24.859-24.29,13.7-18.517,14.423-35.85,14.423-35.85C282.662,265.3,265.93,249.534,248.309,234.8Z" transform="translate(0 0)"/><path class="b" d="M129.967,338.812c2.07.563,2.894-.1,5.154-1.327,10.6-5.738,17.723-14.649,24.859-24.291,13.7-18.517,14.423-35.85,14.423-35.85-19.451-12.386-36.182-28.154-53.8-42.886-.588-.492-1.18-.987-1.806-1.433-3.655-2.6-8.406-3.637-12.551-5.23l-9.959-3.828c-12.625-4.853-26.218-10.261-38.95-15.519a34,34,0,0,1-3.577-1.281l-.068.193c13.474,16.107,24.846,38.876,33.217,60.082,5.515,13.967,15.968,44.594,19.37,54.616q6.948,4.916,13.9,9.827C122.865,333.789,126.814,337.957,129.967,338.812Z" transform="translate(127.709 0.343)"/><path class="b" d="M58.076,267.442c8.371-21.206,19.742-43.975,33.217-60.082l-.068-.193c-13.88,6-29.176,12.318-43.206,17.914-5.423,2.164-10.963,4.074-16.351,6.316s-9.264,5.733-13.584,9.474c-5.19,4.492-10.283,9.091-15.463,13.6-10.22,8.891-20.694,17.548-32.042,24.978,0,0,.946,17.323,14.877,35.665,7.255,9.55,14.489,18.37,25.163,23.974,2.275,1.195,3.11,1.849,5.172,1.261,3.14-.9,7.037-5.111,9.708-7.052q6.9-5.011,13.8-10.02S51.43,284.272,58.076,267.442Z" transform="translate(0 0.343)"/><path class="d" d="M16.754,281.723c-.271-3.318-.632-6.62-1.159-9.885-2.313-14.281-9.974-26.046-11.732-40.456-.292-2.4-2.067-4.48-1.857-1.986,1.187,14.076,7.564,38.513,9.451,52.447-2.285-4.9-10.575-18.685-14.324-21.757-1.725-1.413-1.788.675-.449,2.384a36.893,36.893,0,0,1,4.982,8.457c4.449,7.638,7,15.646.842,24.28-3.4,4.771-8.924,9.317-14.918,12.825a4.164,4.164,0,0,0,2.057-.112c3.14-.9,7.037-5.111,9.708-7.052q6.9-5.011,13.8-10.02s.005,14.735.036,34.579c.55-3.054,1.111-6.111,1.616-9.175A183.247,183.247,0,0,0,16.754,281.723Z" transform="translate(26.142 32.766)"/><path class="b" d="M69.358,259.19c45.068,0,51.549-48.048,51.716-49-3.574-1.459-4.444-1.814-7.886-3.249-1.207,3.49-5.636,16.019-12.84,25.074-15.605,19.608-47.47,19.831-63.339.4-7.321-8.962-11.907-21.434-13.157-24.909-3.774,1.631-5.5,2.372-9.429,4.028C14.831,213.291,24.681,259.19,69.358,259.19Z" transform="translate(67.373 0)"/><path class="d" d="M93.119,261.986c1.339-1.71,1.276-3.8-.449-2.387-3.749,3.072-12.039,16.856-14.324,21.759,1.885-13.936,8.264-38.371,9.451-52.449.208-2.493-1.565-.411-1.857,1.986-1.758,14.41-9.418,26.178-11.732,40.456-.53,3.265-.888,6.567-1.159,9.885A183.284,183.284,0,0,0,75,315.769c.446,2.712,1.418,5.56,2.024,8.3-.216-19.392-.391-33.7-.391-33.7l.018.015v-.015l.746.543q6.579,4.65,13.16,9.3c2.694,1.9,6.643,6.073,9.8,6.927a4.756,4.756,0,0,0,1.489.18c-5.849-3.475-11.214-7.922-14.545-12.6-6.154-8.635-3.607-16.643.842-24.278A36.8,36.8,0,0,1,93.119,261.986Z" transform="translate(157.325 32.017)"/></g></svg>